<svg width="24" height="24" viewBox="0 0 24 24" fill="none" xmlns="http://www.w3.org/2000/svg">
<path fill-rule="evenodd" clip-rule="evenodd" d="M13 1V7H11V1H13Z" fill="#212121"/>
<path fill-rule="evenodd" clip-rule="evenodd" d="M13 17V23H11V17H13Z" fill="#212121"/>
<path opacity="0.1" fill-rule="evenodd" clip-rule="evenodd" d="M4.92993 3.51547L9.17414 7.75969L7.75993 9.1739L3.51572 4.92969L4.92993 3.51547Z" fill="#212121"/>
<path fill-rule="evenodd" clip-rule="evenodd" d="M16.24 14.826L20.4842 19.0702L19.07 20.4844L14.8258 16.2402L16.24 14.826Z" fill="#212121"/>
<path opacity="0.4" fill-rule="evenodd" clip-rule="evenodd" d="M1 11H7V13H1V11Z" fill="#212121"/>
<path fill-rule="evenodd" clip-rule="evenodd" d="M17 11H23V13H17V11Z" fill="#212121"/>
<path opacity="0.6" fill-rule="evenodd" clip-rule="evenodd" d="M9.17414 16.2402L4.92993 20.4844L3.51572 19.0702L7.75993 14.826L9.17414 16.2402Z" fill="#212121"/>
<path fill-rule="evenodd" clip-rule="evenodd" d="M20.4842 4.92969L16.24 9.1739L14.8258 7.75969L19.07 3.51547L20.4842 4.92969Z" fill="#212121"/>
</svg>
