<svg width="24" height="24" viewBox="0 0 24 24" fill="none" xmlns="http://www.w3.org/2000/svg">
<path fill-rule="evenodd" clip-rule="evenodd" d="M12.6 1.39999V6.59999H11.4V1.39999H12.6Z" fill="#212121"/>
<path fill-rule="evenodd" clip-rule="evenodd" d="M12.6 17.4V22.6H11.4V17.4H12.6Z" fill="#212121"/>
<path opacity="0.1" fill-rule="evenodd" clip-rule="evenodd" d="M4.92992 4.08115L8.60845 7.75967L7.75992 8.6082L4.08139 4.92967L4.92992 4.08115Z" fill="#212121"/>
<path fill-rule="evenodd" clip-rule="evenodd" d="M16.24 15.3917L19.9185 19.0702L19.07 19.9187L15.3914 16.2402L16.24 15.3917Z" fill="#212121"/>
<path opacity="0.4" fill-rule="evenodd" clip-rule="evenodd" d="M1.39999 11.4H6.59999V12.6H1.39999V11.4Z" fill="#212121"/>
<path fill-rule="evenodd" clip-rule="evenodd" d="M17.4 11.4H22.6V12.6H17.4V11.4Z" fill="#212121"/>
<path opacity="0.6" fill-rule="evenodd" clip-rule="evenodd" d="M8.60845 16.2402L4.92992 19.9187L4.08139 19.0702L7.75992 15.3917L8.60845 16.2402Z" fill="#212121"/>
<path fill-rule="evenodd" clip-rule="evenodd" d="M19.9185 4.92967L16.24 8.6082L15.3914 7.75967L19.07 4.08115L19.9185 4.92967Z" fill="#212121"/>
</svg>
