<svg width="24" height="24" viewBox="0 0 24 24" fill="none" xmlns="http://www.w3.org/2000/svg">
<path fill-rule="evenodd" clip-rule="evenodd" d="M12.8 1.20001V6.80001H11.2V1.20001H12.8Z" fill="#212121"/>
<path fill-rule="evenodd" clip-rule="evenodd" d="M12.8 17.2V22.8H11.2V17.2H12.8Z" fill="#212121"/>
<path opacity="0.1" fill-rule="evenodd" clip-rule="evenodd" d="M4.92995 3.79832L8.89133 7.7597L7.75996 8.89107L3.79858 4.9297L4.92995 3.79832Z" fill="#212121"/>
<path fill-rule="evenodd" clip-rule="evenodd" d="M16.24 15.1089L20.2014 19.0702L19.07 20.2016L15.1086 16.2402L16.24 15.1089Z" fill="#212121"/>
<path opacity="0.4" fill-rule="evenodd" clip-rule="evenodd" d="M1.20001 11.2H6.80001V12.8H1.20001V11.2Z" fill="#212121"/>
<path fill-rule="evenodd" clip-rule="evenodd" d="M17.2 11.2H22.8V12.8H17.2V11.2Z" fill="#212121"/>
<path opacity="0.6" fill-rule="evenodd" clip-rule="evenodd" d="M8.89133 16.2402L4.92995 20.2016L3.79858 19.0702L7.75996 15.1089L8.89133 16.2402Z" fill="#212121"/>
<path fill-rule="evenodd" clip-rule="evenodd" d="M20.2014 4.9297L16.24 8.89107L15.1086 7.7597L19.07 3.79832L20.2014 4.9297Z" fill="#212121"/>
</svg>
